# xmcd
#
# Track frame offsets:
#	150
#	9464
#	17826
#	30110
#	34186
#	46015
#	52794
#	59798
#	67842
#	96877
#	108854
#	133557
#	151711
#	163455
#	180384
#	192477
#	217830
#	235203
#	247900
#
# Disc length: 3676 seconds
#
# Revision: 1
# Processed by: cddbd v1.5.2PL0 Copyright (c) Steve Scherf et al.
# Submitted via: EasyCDDAExtractor 11.5.3.1
#
DISCID=e80e5a13
DTITLE=Christopher Ruhe w. the Howland Wolves - Long Way from Kansas City
DYEAR=2006
DGENRE=Blues
TTITLE0=The Dancer
TTITLE1=Strada Machilor
TTITLE2=Wintertime
TTITLE3=Bonehead Blues
TTITLE4=Janey's Jazmin Air
TTITLE5=Rain in the Night
TTITLE6=Burgundy Rose
TTITLE7=High Plains Girl
TTITLE8=Jay 'n Otis Blues
TTITLE9=Green Hills of Earth
TTITLE10=Never Gonna Rain
TTITLE11=Hudson Nocturne
TTITLE12=Mr. Flea at Midnight
TTITLE13=Adios Suyapa
TTITLE14=Little Lehigh Lehman
TTITLE15=Ruhe's Blues
TTITLE16=Rosy Fingers of Dawn
TTITLE17=Long Way from Kansas City
TTITLE18=Lovely Leah of Andalucia
EXTD=
EXTT0=
EXTT1=
EXTT2=
EXTT3=
EXTT4=
EXTT5=
EXTT6=
EXTT7=
EXTT8=
EXTT9=
EXTT10=
EXTT11=
EXTT12=
EXTT13=
EXTT14=
EXTT15=
EXTT16=
EXTT17=
EXTT18=
PLAYORDER=
